<svg width="230" height="244" viewBox="0 0 230 244" fill="none" xmlns="http://www.w3.org/2000/svg">
<path d="M109.774 244C124.345 119.371 87.4303 119.371 41.811 112.543C76.7443 114.263 111.716 107.112 111.716 51.9485C110.746 0.870947 63.1828 -10.0429 32.0965 8.34509C6.83886 21.6252 -6.2688 57.6956 2.95299 96.1981C15.5432 158.19 80.6301 213.353 109.774 244Z" fill="#3075D8"/>
<path d="M120.226 244C105.655 119.371 142.57 119.371 188.189 112.543C153.256 114.263 118.284 107.112 118.284 51.9485C119.254 0.870947 166.817 -10.0429 197.904 8.34509C223.161 21.6252 236.269 57.6956 227.047 96.1981C214.457 158.19 149.37 213.353 120.226 244Z" fill="#3075D8"/>
</svg>
