<svg width="230" height="244" viewBox="0 0 230 244" fill="none" xmlns="http://www.w3.org/2000/svg">
<path d="M111.716 244C126.546 119.371 88.9777 119.371 42.551 112.543C78.1027 114.263 113.694 107.112 113.694 51.9485C112.706 0.870947 64.3011 -10.0429 32.6646 8.34509C6.9599 21.6252 -6.37975 57.6956 3.00526 96.1981C15.8183 158.19 82.0572 213.353 111.716 244Z" fill="#EF484F"/>
<path d="M118.284 244C103.454 119.371 141.022 119.371 187.449 112.543C151.897 114.263 116.306 107.112 116.306 51.9485C117.294 0.870947 165.699 -10.0429 197.335 8.34509C223.04 21.6252 236.38 57.6956 226.995 96.1981C214.182 158.19 147.943 213.353 118.284 244Z" fill="#514031"/>
</svg>
