<svg width="42" height="46" viewBox="0 0 42 46" fill="none" xmlns="http://www.w3.org/2000/svg">
<path d="M5.04025 0C-5.91976 20.9506 3.51803 36.7294 9.60693 42C5.14173 32.5129 14.8501 25.5294 20.2625 23.2235C40.1529 15.7129 35.6539 28.6588 30.9181 36.0706C39.7131 28.3294 51.6203 13.9341 28.8884 18.2824C6.15656 22.6306 3.51803 7.90588 5.04025 0Z" fill="#3076D8"/>
<path d="M14.291 33.4102H17.4961C18.1992 33.4102 18.7871 33.4766 19.2598 33.6094C19.7363 33.7383 20.1133 34.0215 20.3906 34.459C20.668 34.8926 20.8066 35.3789 20.8066 35.918C20.8066 36.7852 20.5312 37.4434 19.9805 37.8926C19.4297 38.3418 18.6328 38.5664 17.5898 38.5664H15.4277V42H14.291V33.4102ZM15.4277 37.5469H17.6016C18.332 37.5469 18.8516 37.4102 19.1602 37.1367C19.4727 36.8633 19.6289 36.4688 19.6289 35.9531C19.6289 35.6094 19.543 35.3047 19.3711 35.0391C19.1992 34.7734 18.9805 34.6055 18.7148 34.5352C18.4531 34.4648 18.0742 34.4297 17.5781 34.4297H15.4277V37.5469ZM28.4004 34.4297H25.5586V42H24.416V34.4297H21.5977V33.4102H28.4004V34.4297Z" fill="#3076D8"/>
</svg>
