<svg width="42" height="43" viewBox="0 0 42 43" fill="none" xmlns="http://www.w3.org/2000/svg">
<path d="M20.76 42.3767C32.2255 42.3767 41.52 32.8903 41.52 21.1883C41.52 9.48634 32.2255 0 20.76 0C9.29457 0 0 9.48634 0 21.1883C0 32.8903 9.29457 42.3767 20.76 42.3767Z" fill="#3075D8"/>
<path d="M28.0056 12.7378H13.5141C11.799 12.7378 10.4082 14.1572 10.4082 15.9078V26.473C10.4082 28.2235 11.799 29.6429 13.5141 29.6429H28.0056C29.7207 29.6429 31.1115 28.2235 31.1115 26.473V15.9036C31.1115 14.1531 29.7207 12.7378 28.0056 12.7378ZM27.5839 14.8483L21.4937 21.06C21.0923 21.4738 20.4355 21.478 20.03 21.0641L20.0259 21.06L13.9358 14.8483H27.5839ZM29.0436 26.473C29.0436 27.0565 28.5813 27.5282 28.0096 27.5282H13.5141C12.9424 27.5282 12.4801 27.0565 12.4801 26.473V16.3382L18.5662 22.5498C19.7786 23.7872 21.7411 23.7872 22.9575 22.5498L29.0436 16.3382V26.473Z" fill="#BFD9FF" stroke="#BFD9FF"/>
</svg>
