<svg width="42" height="43" viewBox="0 0 42 43" fill="none" xmlns="http://www.w3.org/2000/svg">
<path fill-rule="evenodd" clip-rule="evenodd" d="M41.52 21.1883C41.52 32.8903 32.2254 42.3767 20.76 42.3767C9.29457 42.3767 0 32.8903 0 21.1883C0 9.48633 9.29457 0 20.76 0C32.2254 0 41.52 9.48633 41.52 21.1883ZM21.5039 15.6422C19.4848 16.4994 15.4492 18.2735 9.39721 20.9646C8.41447 21.3635 7.89967 21.7537 7.8528 22.1353C7.77359 22.7801 8.56477 23.034 9.64215 23.3797C9.78869 23.4269 9.94055 23.4756 10.0962 23.5272C11.1562 23.8789 12.582 24.2903 13.3233 24.3065C13.9956 24.3214 14.7461 24.0385 15.5746 23.4578C21.2292 19.5621 24.148 17.593 24.3313 17.5506C24.4607 17.5206 24.6397 17.483 24.7612 17.5931C24.8824 17.7032 24.8707 17.9117 24.8577 17.9677C24.7793 18.3087 21.6736 21.2556 20.0665 22.7806C19.5655 23.256 19.2101 23.5932 19.1374 23.6702C18.9747 23.8429 18.8087 24.006 18.6494 24.1628C17.6647 25.1317 16.9262 25.8582 18.6902 27.0448C19.5381 27.6149 20.2164 28.0864 20.8932 28.5568C21.6323 29.0706 22.3694 29.583 23.3232 30.2211C23.5662 30.3837 23.7982 30.5525 24.0244 30.7169C24.8845 31.3428 25.6573 31.905 26.6119 31.8153C27.1667 31.7633 27.7397 31.2309 28.0307 29.6432C28.7184 25.8907 30.0702 17.7602 30.3826 14.4098C30.4101 14.1162 30.3757 13.7406 30.348 13.5757C30.3203 13.4108 30.2626 13.1758 30.0525 13.0019C29.8038 12.7959 29.4199 12.7524 29.2481 12.7555C28.4672 12.7696 27.2693 13.1947 21.5039 15.6422Z" fill="#3075D8"/>
</svg>
